<svg xmlns="http://www.w3.org/2000/svg" width="119.849" height="121.197" viewBox="0 0 119.849 121.197">
  <g id="cakeCenter" transform="translate(-261 -313)">
    <g id="cake" transform="translate(251.093 313)">
      <path id="Path_1" data-name="Path 1" d="M106.313,110.665c-1.083-.226-3.519-.226-6.5-.452,2.707,5.652-.541,11.982-7.037,14.469s-14.345-.452-17.322-5.878a9.071,9.071,0,0,1-.541-7.008c-14.616,2.487-25.172,7.687-32.209,15.825l104.475,16.051Z" transform="translate(-23.531 -73.67)" fill="#fa9e15"/>
      <circle id="Ellipse_1" data-name="Ellipse 1" cx="6.556" cy="6.556" r="6.556" transform="translate(58.154 34.104)" fill="#fde7ae"/>
      <g id="Group_1" data-name="Group 1" transform="translate(17.82 65.581)">
        <path id="Path_2" data-name="Path 2" d="M37.907,285.065l110.806,17.182v-11.3L37.907,274.213Z" transform="translate(-37.907 -249.345)" fill="#fa9e15"/>
        <path id="Path_3" data-name="Path 3" d="M37.907,186.213v8.817l110.806,16.956v-8.591l-28.638-4.521Z" transform="translate(-37.907 -186.213)" fill="#fa9e15"/>
      </g>
      <path id="Path_4" data-name="Path 4" d="M38.707,245.8l110.806,16.956v-6.782L38.707,239.013Z" transform="translate(-20.661 -161.111)" fill="#fde7ae"/>
      <path id="Path_5" data-name="Path 5" d="M129.492,72.593V72.34c0-.253-.264-.253-.264-.506l-.264-.253h0L81.975,28.546a5.822,5.822,0,0,0-1.32-.759,97.751,97.751,0,0,0-12.143-.759,10.846,10.846,0,0,0-5.28-2.278C62.7,20.192,63.232,9.56,72.471,5A2.508,2.508,0,0,0,73.527,1.46a3.1,3.1,0,0,0-3.7-1.266h0C57.952,6.269,57.424,18.926,57.688,24.5a12.687,12.687,0,0,0-6.336,3.291C32.082,30.571,17.827,38.925,10.171,51.835h0v.253c0,.253-.264.506-.264,1.013h0V98.414a2.491,2.491,0,0,0,2.112,2.531L126.588,121.2h.528a2.444,2.444,0,0,0,2.64-2.531V72.846Zm-68.9-43.288a7.348,7.348,0,1,1-7.656,7.341h0A7.509,7.509,0,0,1,60.592,29.305Zm-12.407,4.3a12.231,12.231,0,0,0-.528,3.038c-.264,6.835,5.28,12.4,12.407,12.657a12.522,12.522,0,0,0,13.2-11.9,12.746,12.746,0,0,0-1.056-5.316c2.9.253,5.28.506,6.336.506L118.668,69.3,17.035,51.076C23.634,42.216,34.194,36.14,48.185,33.609Zm76.291,81.765L15.187,96.135V83.984L124.476,102.97Zm0-17.72L15.187,78.668V71.074L124.476,90.06Zm0-12.657L15.187,66.011V55.885L96.23,70.315l28.246,5.063Z" transform="translate(0 0)" fill="#873c1b"/>
    </g>
    <text id="den_søde_fine" data-name="den søde
fine" transform="matrix(0.986, 0.165, -0.165, 0.986, 321.966, 381.527)" fill="#fde7ae" stroke="#873c1b" stroke-width="0.5" font-size="29" font-family="Oswald-RegularItalic, Oswald" font-style="italic"><tspan x="-45.957" y="0">den søde</tspan><tspan x="-19.796" y="35">fine</tspan></text>
  </g>
</svg>
